<?xml version="1.0" encoding="iso-8859-1"?>
<!-- Generator: Adobe Illustrator 16.0.0, SVG Export Plug-In . SVG Version: 6.00 Build 0)  -->
<!DOCTYPE svg PUBLIC "-//W3C//DTD SVG 1.1//EN" "http://www.w3.org/Graphics/SVG/1.1/DTD/svg11.dtd">
<svg version="1.1" id="Layer_1" xmlns="http://www.w3.org/2000/svg" xmlns:xlink="http://www.w3.org/1999/xlink" x="0px" y="0px"
	 width="30.76px" height="30.76px" viewBox="0 0 30.76 30.76" style="enable-background:new 0 0 30.76 30.76;" xml:space="preserve"
	>
<g id="target">
	<path id="target-2_2_" d="M28.838,13.934h-1.526c-0.654-5.503-4.992-9.882-10.496-10.59V1.922C16.815,0.863,16.174,0,15.38,0
		s-1.436,0.863-1.436,1.922v1.395C8.347,3.925,3.873,8.36,3.209,13.934H1.922C0.865,13.934,0,14.587,0,15.38
		s0.865,1.446,1.922,1.446h1.287c0.664,5.572,5.14,10.009,10.735,10.616v1.396c0,1.058,0.642,1.922,1.436,1.922
		s1.436-0.864,1.436-1.922v-1.422c5.504-0.708,9.842-5.087,10.496-10.59h1.526c1.058,0,1.922-0.653,1.922-1.446
		S29.896,13.934,28.838,13.934z M24.399,13.934h-2.948c-0.554-2.285-2.353-4.119-4.638-4.715V6.26
		C20.709,6.924,23.785,10.039,24.399,13.934z M15.199,18.984c-1.954,0-3.546-1.59-3.546-3.545c0-1.954,1.592-3.544,3.546-3.544
		s3.545,1.59,3.545,3.544C18.744,17.395,17.153,18.984,15.199,18.984z M13.944,6.223v2.913c-2.473,0.49-4.414,2.373-4.995,4.798
		h-2.83C6.747,9.947,9.935,6.797,13.944,6.223z M6.119,16.826h2.803c0.545,2.472,2.528,4.419,5.022,4.917v2.794
		C9.935,23.963,6.746,20.813,6.119,16.826z M16.813,24.5v-2.839c2.332-0.605,4.146-2.479,4.664-4.835h2.922
		C23.785,20.721,20.709,23.836,16.813,24.5z"/>
</g>
<g id="Layer_1_1_">
</g>
</svg>
