<?xml version="1.0" encoding="iso-8859-1"?>
<!-- Generator: Adobe Illustrator 16.0.0, SVG Export Plug-In . SVG Version: 6.00 Build 0)  -->
<!DOCTYPE svg PUBLIC "-//W3C//DTD SVG 1.1//EN" "http://www.w3.org/Graphics/SVG/1.1/DTD/svg11.dtd">
<svg version="1.1" id="Layer_1" xmlns="http://www.w3.org/2000/svg" xmlns:xlink="http://www.w3.org/1999/xlink" x="0px" y="0px"
	 width="32px" height="32px" viewBox="0 0 32 32" style="enable-background:new 0 0 32 32;" xml:space="preserve">
<path d="M29.076,6.816c-0.053,0.009-1.627-0.287-2.957,0.271c-0.416,0.175-1.367,1.063-2.174,0.314
	c-0.455-0.421-0.608-1.923-0.668-2.06c-0.716-1.571-2.915-1.514-3.166-2.489c-0.193-0.742,0.562-1.521,1.854-0.993
	c2.846,1.158,3.222,1.196,2.506,0.617c-0.112-0.094-0.292-0.203-0.498-0.318c-0.053-0.034-0.105-0.063-0.149-0.082
	c-0.046-0.025-0.095-0.052-0.144-0.076C21.39,0.737,18.771,0,15.974,0C10.798,0,6.211,2.462,3.281,6.266
	c0.013,0,0.023,0.002,0.035,0.002L3.225,6.358c2.059-1.652,0.979,0.14,5.159-1.499c0.15-0.061,1.333-0.17,1.571-0.108
	c4.3,1.13,6.254-0.026,6.414-0.136c1.982-1.349,3.514-1.032,3.524,0.123c0.006,0.709,0.205,1.509-0.66,1.31
	c-1.245-0.288-1.964-1.582-2.141-0.167c-0.128,1.029-2.106,1.132-1.788,1.788c0.206,0.426,2.081-0.368,2.93-0.862
	c0.849-0.493,1.562,0.442,1.617,0.562c0.608,1.313,2.403,1.863,2.589,1.937c1.441,0.571-0.09,1.349-0.933,1.791
	C21.485,11.107,18,15,16.744,14.709C16.587,14.673,16.207,14.052,16,14c-4-1-1.878,4.661-0.852,2.421
	c0.428-0.933,0.365,0.462,0.372,1.028c0.007,0.565,0.858,1.124,0.858,1.124c0.035,0.064,0.946,0.164,1.017,0.404l0.279,0.173
	c0,0,0.521-0.875,1.248-0.796c1.798,0.195,4.612,1.954,4.914,2.104c2.912,1.457,1.931,4.069-0.803,5.511
	c-0.866,0.461-0.801,2.37-1.819,1.651c-0.578-0.406-2.046,3.475-2.132,4.128c6.292-1.238,11.262-6.155,12.574-12.419
	c-0.039-0.05-0.08-0.104-0.119-0.164c0.011-0.024,0.021-0.045,0.028-0.061c0.062-0.121,0-0.456-0.029-0.546
	c-0.03-0.093-0.062-0.152-0.076-0.288c-0.016-0.137,0.015-0.213,0-0.411c-0.016-0.195,0.12-0.181,0.182-0.53
	c0.061-0.349-0.045-0.256-0.091-0.453c-0.017-0.074,0.021-0.129,0.076-0.181c0.022-0.018,0.049-0.038,0.077-0.063
	c0.063-0.046,0.13-0.091,0.163-0.143c0.06-0.054,0.087-0.083,0.115-0.118C31.986,16.257,32,16.146,32,16.027
	C32,12.596,30.913,9.423,29.076,6.816z"/>
<path d="M17.494,20.159c0.336-0.673-0.737-0.666-1.35-1.157c-0.895-0.718-2.016-1.206-2.224-1.291
	c-0.445-0.185-2.114-1.734-2.512-2.229c-0.338-0.425-0.098-0.994-0.679-0.739c-0.012,0.005-0.012-0.011-0.016-0.008
	c-0.386,0.256-0.962,0.106-1.473-1.936c-0.093-0.368-0.075-0.393,0.045-0.562c0.641-0.87-1.501-3.587-1.969-4.151
	C7.08,7.802,6.268,8.024,5.922,8.073c-0.101-0.06-0.345,0.013-0.438,0.013c-0.107,0,0.014-0.151,0.076-0.271
	c0.06-0.123-0.063-0.063-0.152-0.078c-0.091-0.014,0.03-0.134,0.09-0.272c0.108-0.238-0.852,0.433-1.09,0.544
	C4.119,8.146,4.24,8.178,4.15,8.284C4.06,8.39,4.014,8.616,3.906,8.707C3.802,8.8,4.119,8.751,4.21,8.768
	c0.117,0.02,0.046,0.412-0.212,0.365c0,0-0.397,0.279-0.845,0.519c-0.075,0.015-0.082-0.03-0.074-0.073
	c0.123-0.079,0.191-0.219,0.335-0.249c0.196-0.042,0.114-0.243,0-0.272c-0.04-0.013-0.058-0.027-0.063-0.049
	c0.003-0.02,0.003-0.034,0.006-0.044c0.009-0.027,0.031-0.057,0.053-0.09c0.054-0.08-0.306-0.137-0.503-0.137
	c-0.196,0-0.15-0.121-0.196-0.334c-0.086-0.397,1.069-0.57,0.606-0.858C3.252,7.29,3.052,7.641,2.811,7.562
	C2.746,7.54,2.638,7.604,2.553,7.669c-0.074,0.054-0.188,0.06-0.273,0.063c-1.473,2.421-2.334,5.253-2.334,8.295
	c0,8.853,7.175,16.028,16.028,16.028c0.665,0,1.32-0.055,1.965-0.135c-0.006-0.058,0.101-1.663,0.286-2.21
	c0.2-0.592,0.587-4.079,0.448-4.964C18.471,23.451,18.454,24.053,17.494,20.159z"/>
</svg>
