<?xml version="1.0" encoding="iso-8859-1"?>
<!-- Generator: Adobe Illustrator 16.0.0, SVG Export Plug-In . SVG Version: 6.00 Build 0)  -->
<!DOCTYPE svg PUBLIC "-//W3C//DTD SVG 1.1//EN" "http://www.w3.org/Graphics/SVG/1.1/DTD/svg11.dtd">
<svg version="1.1" xmlns="http://www.w3.org/2000/svg" xmlns:xlink="http://www.w3.org/1999/xlink" x="0px" y="0px" width="30px"
	 height="28px" viewBox="0 0 30 28" style="enable-background:new 0 0 30 28;" xml:space="preserve">
<g id="statistics">
	<path id="statistics_2_" d="M28.993,23H28V9.111C28,8.572,27.386,8,26.847,8h-3.926C22.382,8,22,8.572,22,9.111V23h-4V1.077
		C18,0.538,17.45,0,16.911,0h-3.924C12.447,0,12,0.538,12,1.077V23H8v-8.028C8,14.432,7.516,14,6.976,14H3.052
		C2.513,14,2,14.432,2,14.972V23H1.089C0.55,23,0,23.535,0,24.075v2.942C0,27.559,0.55,28,1.089,28h27.904
		C29.532,28,30,27.559,30,27.018v-2.942C30,23.535,29.532,23,28.993,23z"/>
</g>
<g id="Layer_1">
</g>
</svg>
